<?xml version="1.0" standalone="no"?>
<!DOCTYPE svg PUBLIC "-//W3C//DTD SVG 20010904//EN"
 "http://www.w3.org/TR/2001/REC-SVG-20010904/DTD/svg10.dtd">
<svg version="1.0" xmlns="http://www.w3.org/2000/svg"
 width="512.000000pt" height="512.000000pt" viewBox="0 0 512.000000 512.000000"
 preserveAspectRatio="xMidYMid meet">

<g transform="translate(0.000000,512.000000) scale(0.100000,-0.100000)"
fill="#000000" stroke="none">
<path d="M770 4279 c-414 -165 -581 -237 -597 -255 -16 -17 -23 -38 -23 -64 0
-65 24 -81 243 -161 l197 -72 0 -113 c0 -108 1 -113 25 -132 71 -56 739 -101
1077 -73 165 15 365 45 402 63 32 14 35 27 39 148 l2 95 213 80 c149 56 220
87 233 104 27 33 25 93 -3 125 -28 31 -1155 486 -1203 486 -16 -1 -289 -104
-605 -231z"/>
<path d="M4040 3444 c-221 -27 -387 -109 -545 -268 -114 -115 -167 -200 -214
-341 -63 -192 -60 -374 10 -587 11 -35 10 -43 -15 -91 -99 -197 -1 -435 206
-498 88 -27 173 -22 251 16 219 103 272 392 103 560 -76 76 -131 99 -246 102
l-94 2 -14 43 c-10 28 -15 90 -16 173 -1 111 2 140 22 200 33 100 95 199 172
274 127 126 257 182 440 189 138 5 206 -9 328 -69 60 -29 104 -61 158 -112 74
-72 74 -72 62 -104 -22 -60 -4 -83 92 -120 146 -55 161 -48 192 91 20 88 20
101 7 125 -10 17 -26 28 -47 31 -24 4 -43 20 -79 65 -107 133 -295 252 -465
295 -77 19 -241 32 -308 24z m226 -85 c213 -37 416 -167 528 -336 29 -43 50
-58 68 -46 8 4 9 -2 5 -18 -4 -13 -10 -41 -13 -62 -7 -43 -13 -43 -87 -12 -34
14 -36 17 -22 31 21 22 20 25 -29 91 -203 277 -594 370 -912 218 -319 -153
-484 -507 -397 -854 l16 -64 -24 -18 c-13 -10 -27 -19 -31 -19 -4 0 -14 24
-23 54 -134 460 146 927 620 1031 74 16 222 18 301 4z m-599 -1104 c60 -18
135 -81 165 -138 11 -23 23 -69 26 -103 13 -164 -106 -294 -270 -294 -38 0
-85 7 -104 15 -173 72 -228 294 -108 434 74 86 183 118 291 86z"/>
<path d="M3528 2113 l-3 -58 -57 -3 -58 -3 0 -59 0 -59 58 -3 57 -3 3 -58 3
-58 57 3 57 3 3 58 3 57 54 0 55 0 0 60 0 60 -55 0 -54 0 -3 58 -3 57 -57 3
-57 3 -3 -58z"/>
<path d="M1545 2763 c-56 -29 -108 -81 -495 -497 -176 -189 -272 -285 -286
-285 -11 -1 -39 -17 -61 -36 -31 -27 -50 -35 -80 -35 -76 -1 -166 -59 -204
-132 -25 -49 -24 -51 13 -28 55 34 97 27 180 -30 62 -42 80 -50 120 -50 41 0
54 -5 87 -35 43 -39 51 -34 51 32 0 27 9 45 35 74 19 22 35 48 35 58 0 13 114
126 318 316 386 362 435 411 467 474 76 151 -29 253 -180 174z m129 -66 c9
-14 5 -29 -18 -73 -24 -45 -88 -110 -345 -351 -174 -163 -337 -317 -363 -342
l-48 -45 -25 24 c-14 13 -24 27 -23 31 2 4 155 169 341 367 275 294 348 366
390 387 57 28 74 29 91 2z m-859 -847 c37 -38 38 -41 22 -57 -16 -17 -19 -15
-59 24 -35 36 -40 44 -29 57 19 22 22 21 66 -24z"/>
<path d="M1608 2089 c-301 -34 -552 -255 -628 -554 -37 -144 -21 -338 40 -479
62 -145 204 -296 342 -365 127 -62 190 -76 348 -75 118 0 145 4 215 27 248 82
445 297 499 544 20 90 20 236 1 328 -19 90 -89 234 -151 309 -156 190 -418
294 -666 265z m250 -95 c69 -15 201 -76 226 -103 15 -16 10 -20 -68 -50 -156
-61 -336 -182 -473 -318 l-72 -72 -30 38 -30 37 49 47 c101 94 166 228 177
364 6 68 7 72 32 75 41 5 120 -3 189 -18z m-301 -61 c-2 -38 -15 -93 -27 -123
-24 -63 -95 -163 -140 -198 l-30 -23 -71 108 -71 108 50 46 c28 25 72 59 98
74 44 26 166 74 188 75 5 0 6 -30 3 -67z m664 -175 c49 -62 80 -122 108 -207
32 -97 30 -102 -24 -85 -192 57 -420 -4 -568 -153 l-68 -67 -72 72 -72 72 65
66 c65 66 189 167 266 216 87 56 267 136 306 138 10 0 36 -23 59 -52z m-992
-111 c33 -51 61 -96 61 -99 0 -15 -109 -50 -171 -55 l-70 -6 7 29 c16 67 92
224 108 224 2 0 31 -42 65 -93z m156 -211 l36 -44 -55 -76 c-68 -95 -125 -199
-162 -293 -31 -83 -36 -83 -83 1 -56 97 -103 296 -87 361 6 22 12 25 50 25 50
0 183 32 223 54 15 8 31 15 35 16 4 0 23 -20 43 -44z m923 -52 c52 -17 52 -17
52 -58 -1 -120 -77 -313 -162 -409 l-43 -49 -117 79 c-113 76 -308 230 -308
243 0 4 28 35 62 69 67 66 168 124 248 141 64 13 206 5 268 -16z m-703 -270
c-47 -117 -53 -255 -16 -383 l10 -33 -37 7 c-95 18 -213 75 -290 141 l-36 31
23 69 c32 94 78 183 152 293 l62 93 78 -78 79 -79 -25 -61z m140 -44 c71 -61
192 -152 274 -205 82 -53 83 -47 -20 -100 -86 -44 -160 -65 -244 -68 l-69 -2
-20 50 c-27 70 -28 228 -2 308 10 31 22 57 27 57 4 0 29 -18 54 -40z"/>
</g>
</svg>
