<?xml version="1.0" encoding="iso-8859-1"?>
<!-- Uploaded to: SVG Repo, www.svgrepo.com, Generator: SVG Repo Mixer Tools -->
<svg fill="#000000" version="1.1" id="Layer_1" xmlns="http://www.w3.org/2000/svg" xmlns:xlink="http://www.w3.org/1999/xlink" 
	 viewBox="0 0 64 64" xml:space="preserve">
<g>
	<g>
		<path d="M53,0H19c-2.446,0-4.479,1.768-4.908,4.092c-2.028,0.375-3.625,1.972-4,4C7.768,8.521,6,10.554,6,13v46
			c0,2.757,2.243,5,5,5h11h12h11c2.446,0,4.479-1.768,4.908-4.092c2.028-0.375,3.625-1.972,4-4C56.232,55.479,58,53.446,58,51V5
			C58,2.243,55.757,0,53,0z M23.326,62l1.429-5h6.491l1.429,5H23.326z M32,55h-8c-0.551,0-1-0.448-1-1s0.449-1,1-1h1h6h1
			c0.551,0,1,0.448,1,1S32.551,55,32,55z M29,42v-8.112c1.215,1.242,2.884,2.039,4.739,2.107L30.208,51h-4.416l-3.531-15.005
			c1.854-0.068,3.524-0.865,4.739-2.107V42H29z M48,59c0,1.654-1.346,3-3,3H34.754l-1.508-5.279C34.278,56.246,35,55.209,35,54
			c0-1.566-1.211-2.841-2.743-2.974l3.717-15.797c0.07-0.297,0-0.61-0.19-0.85C35.594,34.14,35.306,34,35,34h-1
			c-2.757,0-5-2.243-5-5c0-0.552-0.448-1-1-1H15v2h11.899c-0.465,2.279-2.485,4-4.899,4h-1c-0.306,0-0.594,0.14-0.784,0.379
			c-0.19,0.24-0.26,0.553-0.19,0.85l3.717,15.797C22.211,51.159,21,52.434,21,54c0,1.209,0.722,2.246,1.754,2.721L21.246,62H11
			c-1.654,0-3-1.346-3-3V13c0-1.654,1.346-3,3-3h3.871H15h21v11c0,0.552,0.448,1,1,1h11V59z M38,20v-8.586L46.586,20H38z M52,55
			c0,1.304-0.836,2.416-2,2.829V21c0-0.022-0.011-0.041-0.013-0.063c-0.006-0.088-0.023-0.173-0.051-0.257
			c-0.011-0.032-0.019-0.064-0.034-0.094c-0.049-0.106-0.11-0.207-0.196-0.293l-12-12c-0.086-0.086-0.187-0.147-0.293-0.196
			c-0.031-0.014-0.062-0.022-0.094-0.033c-0.084-0.029-0.17-0.046-0.259-0.052C37.04,8.011,37.021,8,37,8H15h-0.129h-2.7
			C12.584,6.836,13.696,6,15,6h30v6c0,0.552,0.448,1,1,1h6V55z M47,11V7.414L50.586,11H47z M56,51c0,1.304-0.836,2.416-2,2.829V12
			c0-0.022-0.011-0.041-0.013-0.063c-0.006-0.088-0.023-0.173-0.051-0.257c-0.011-0.032-0.019-0.064-0.034-0.094
			c-0.049-0.106-0.11-0.207-0.196-0.293l-7-7c-0.086-0.086-0.188-0.148-0.294-0.197c-0.029-0.013-0.059-0.022-0.09-0.032
			c-0.086-0.03-0.174-0.047-0.265-0.053C46.038,4.01,46.02,4,46,4H16.171C16.584,2.836,17.696,2,19,2h34c1.654,0,3,1.346,3,3V51z"/>
	</g>
</g>
<g>
	<g>
		<rect x="10" y="20" width="24" height="2"/>
	</g>
</g>
<g>
	<g>
		<rect x="10" y="24" width="4" height="2"/>
	</g>
</g>
<g>
	<g>
		<rect x="16" y="24" width="2" height="2"/>
	</g>
</g>
<g>
	<g>
		<rect x="20" y="24" width="2" height="2"/>
	</g>
</g>
<g>
	<g>
		<rect x="24" y="24" width="2" height="2"/>
	</g>
</g>
<g>
	<g>
		<rect x="28" y="24" width="6" height="2"/>
	</g>
</g>
<g>
	<g>
		<rect x="10" y="28" width="3" height="2"/>
	</g>
</g>
<g>
	<g>
		<rect x="10" y="16" width="11" height="2"/>
	</g>
</g>
<g>
	<g>
		<rect x="23" y="16" width="11" height="2"/>
	</g>
</g>
<g>
	<g>
		<rect x="36" y="24" width="9" height="2"/>
	</g>
</g>
</svg>