<?xml version="1.0" standalone="no"?>
<!DOCTYPE svg PUBLIC "-//W3C//DTD SVG 20010904//EN"
 "http://www.w3.org/TR/2001/REC-SVG-20010904/DTD/svg10.dtd">
<svg version="1.0" xmlns="http://www.w3.org/2000/svg"
 width="840.000000pt" height="679.000000pt" viewBox="0 0 840.000000 679.000000"
 preserveAspectRatio="xMidYMid meet">

<g transform="translate(0.000000,679.000000) scale(0.100000,-0.100000)"
fill="#000000" stroke="none">
<path d="M3588 5608 l-3 -783 -1010 -5 -1010 -5 -54 -23 c-149 -63 -256 -186
-296 -339 -13 -50 -15 -291 -14 -1843 0 -1654 1 -1790 17 -1851 32 -121 111
-224 225 -293 119 -71 -85 -66 2755 -66 1673 0 2578 3 2613 10 180 34 345 199
379 379 6 35 10 680 10 1825 0 1921 2 1834 -54 1944 -53 105 -146 190 -254
234 l-57 23 -1020 5 -1020 5 -3 783 -2 782 -600 0 -600 0 -2 -782z m992 -263
l0 -835 -390 0 -390 0 0 835 0 835 390 0 390 0 0 -835z m-998 -892 l3 -158
590 -3 c325 -1 600 0 613 3 22 5 22 8 22 160 l0 155 993 -2 992 -3 41 -22 c48
-26 107 -88 131 -140 17 -36 18 -136 18 -1833 l0 -1795 -24 -45 c-32 -61 -67
-97 -126 -128 l-50 -27 -2585 0 -2585 0 -53 30 c-59 32 -91 66 -125 129 l-22
41 0 1795 c0 2004 -7 1824 71 1910 37 41 75 66 124 81 14 4 463 8 997 8 l972
1 3 -157z"/>
<path d="M2434 3931 c-104 -25 -207 -110 -256 -209 -31 -62 -33 -73 -33 -172
0 -99 2 -110 32 -171 39 -80 111 -150 191 -187 50 -24 69 -27 162 -27 88 0
113 4 154 23 328 151 307 625 -33 732 -64 20 -157 25 -217 11z m174 -222 c134
-65 133 -259 -2 -320 -79 -36 -157 -20 -213 44 -77 88 -46 229 61 278 54 24
100 24 154 -2z"/>
<path d="M3732 3598 l3 -103 1333 -3 1332 -2 0 105 0 105 -1335 0 -1336 0 3
-102z"/>
<path d="M2450 3094 c-14 -2 -52 -9 -85 -15 -198 -35 -414 -187 -521 -366 -81
-136 -116 -254 -129 -436 l-7 -97 818 2 819 3 -4 85 c-8 229 -90 428 -239 583
-98 102 -246 187 -383 221 -66 16 -224 28 -269 20z m256 -239 c99 -33 192 -93
260 -168 56 -63 129 -194 140 -254 l7 -33 -586 0 -586 0 15 53 c56 190 220
354 409 408 96 28 249 25 341 -6z"/>
<path d="M3735 3058 c-3 -13 -5 -61 -3 -108 l3 -85 1333 -3 1332 -2 0 110 0
110 -1330 0 -1330 0 -5 -22z"/>
<path d="M3734 2497 c-3 -8 -4 -54 -2 -103 l3 -89 1333 -3 1332 -2 0 105 0
105 -1330 0 c-1098 0 -1332 -2 -1336 -13z"/>
<path d="M2464 1509 c-3 -6 -3 -104 0 -218 l8 -206 -51 100 c-27 55 -78 150
-113 210 l-64 110 -82 3 -82 3 2 -303 3 -303 58 -3 57 -3 0 228 1 228 57 -115
c59 -117 140 -262 174 -312 18 -26 24 -28 89 -28 l69 0 0 310 0 310 -59 0
c-33 0 -63 -5 -67 -11z"/>
<path d="M3217 1514 c-4 -4 -7 -144 -7 -311 l0 -303 193 2 192 3 0 55 0 55
-122 3 -123 3 0 69 0 70 110 0 110 0 0 60 0 60 -110 0 -110 0 0 60 0 59 118 3
117 3 0 55 0 55 -181 3 c-99 1 -183 -1 -187 -4z"/>
<path d="M3763 1513 l-73 -4 0 -305 0 -305 68 3 67 3 3 118 3 117 39 0 c49 0
75 -23 90 -82 6 -24 18 -68 28 -98 l17 -55 59 -3 c88 -5 87 -6 60 91 -33 118
-41 138 -72 171 -22 23 -24 30 -12 34 54 19 98 111 85 178 -9 49 -67 109 -120
122 -52 14 -152 20 -242 15z m202 -128 c32 -31 32 -75 2 -111 -19 -22 -34 -28
-80 -32 l-57 -4 0 86 0 86 55 0 c46 0 60 -4 80 -25z"/>
<path d="M4613 1504 c-3 -8 -4 -106 -1 -217 l4 -202 -24 55 c-14 30 -65 126
-114 213 l-89 157 -80 0 -79 0 0 -305 0 -306 63 3 62 3 0 223 c0 122 0 222 1
222 1 0 27 -51 57 -112 31 -62 84 -162 119 -223 l64 -110 69 0 70 0 3 308 2
307 -60 0 c-46 0 -62 -4 -67 -16z"/>
<path d="M4969 1507 c-86 -32 -131 -91 -131 -172 0 -82 35 -120 164 -179 40
-18 78 -40 84 -47 24 -31 24 -50 -1 -75 -20 -20 -34 -24 -83 -24 -33 0 -79 7
-102 15 -24 8 -44 14 -45 13 -1 -2 -10 -27 -20 -57 -20 -62 -18 -64 58 -81
156 -33 294 15 332 115 40 103 -2 176 -134 238 -101 47 -121 62 -121 93 0 39
40 57 113 51 34 -3 71 -8 83 -12 19 -6 23 0 36 47 l15 53 -31 14 c-44 20 -173
24 -217 8z"/>
<path d="M6293 1513 l-73 -4 0 -304 0 -305 64 0 c49 0 65 4 70 16 3 9 6 58 6
110 l0 94 53 0 c168 0 276 117 237 258 -28 108 -132 147 -357 135z m201 -124
c36 -28 37 -99 2 -134 -24 -24 -104 -43 -125 -30 -7 3 -11 43 -11 96 l0 89 54
0 c39 0 60 -6 80 -21z"/>
<path d="M1830 1205 l0 -305 70 0 70 0 0 305 0 305 -70 0 -70 0 0 -305z"/>
<path d="M2660 1450 l0 -60 85 0 85 0 0 -245 0 -245 70 0 70 0 0 245 0 245 80
0 80 0 0 60 0 60 -235 0 -235 0 0 -60z"/>
<path d="M5340 1205 l0 -305 70 0 70 0 0 125 0 125 115 0 115 0 0 -125 0 -125
64 0 63 0 6 78 c3 42 5 178 4 302 l-2 225 -68 3 -67 3 0 -116 0 -115 -115 0
-115 0 0 115 0 115 -70 0 -70 0 0 -305z"/>
<path d="M5970 1205 l0 -305 70 0 70 0 -2 303 -3 302 -67 3 -68 3 0 -306z"/>
</g>
</svg>
